<svg id="Capa_1" data-name="Capa 1" xmlns="http://www.w3.org/2000/svg" viewBox="0 0 452.15 119.59"><defs><style>.cls-1{fill:#e84560;}.cls-2{fill:#fecd1f;}.cls-3{fill:#f8ebee;}.cls-4{fill:#f7ebee;}.cls-5{fill:#f9ecef;}.cls-6{fill:#f9ebee;}.cls-7{fill:#e8455f;}.cls-8{fill:#f9ebec;}.cls-9{fill:#f9ebeb;}.cls-10{fill:#fcc824;}.cls-11{fill:#fdc921;}.cls-12{fill:#f8e7e2;}.cls-13{fill:#fbbd27;}.cls-14{fill:#fbc224;}.cls-15{fill:#fbbc27;}.cls-16{fill:#fbbe32;}.cls-17{fill:#efab2d;}.cls-18{fill:#ea505a;}.cls-19{fill:#9e6c39;}.cls-20{fill:#eb5c60;}.cls-21{fill:#f9eae9;}.cls-22{fill:#cd8637;}.cls-23{fill:#e94d5c;}.cls-24{fill:#27273f;}.cls-25{fill:#fab829;}.cls-26{fill:#fab42b;}.cls-27{fill:#282a3d;}.cls-28{fill:#e94a5d;}.cls-29{fill:#fab729;}.cls-30{fill:#faba36;}.cls-31{fill:#fab12c;}.cls-32{fill:#f7ba27;}.cls-33{fill:#e9475e;}.cls-34{fill:#ea535a;}.cls-35{fill:#f9e9e1;}.cls-36{fill:#fab62c;}.cls-37{fill:#f9e4ce;}.cls-38{fill:#fdc722;}.cls-39{fill:#e94c66;}.cls-40{fill:#ed5e54;}.cls-41{fill:#f9ecee;}.cls-42{fill:#f7a233;}.cls-43{fill:#f38840;}.cls-44{fill:#f9b131;}.cls-45{fill:#ec6467;}.cls-46{fill:#fcd153;}.cls-47{fill:#fdca33;}.cls-48{fill:#fcbe26;}.cls-49{fill:#fabb2f;}.cls-50{fill:#f5a83b;}.cls-51{fill:#f7a532;}.cls-52{fill:#fdc523;}.cls-53{fill:#f9b741;}.cls-54{fill:#f9d6a6;}.cls-55{fill:#ea4f61;}</style></defs><path class="cls-1" d="M339.11,81.68C339,82.82,339,84,338.17,85c-5.31,2.68-10.36.15-15.48-.78-5.93-1-11.7-2.67-17.56-4-2.09-.46-4.86-.95-4.43-3.52.47-2.81,3.35-1.66,5.34-1.64a15.3,15.3,0,0,1,2.91.59c-9.47-7.32-13.59-16.86-15.12-27.39a86.79,86.79,0,0,1-.27-23.39c.08-1.64,1-3.19.52-4.89C295.3,9.61,302,2.44,312.18,1.39c12.57-1.3,25.06.48,37.48,2.13,6.3.84,14.37,10.07,11.14,17.1-3.38,1.77-7.55,1.76-10.4,4.68a28.66,28.66,0,0,1-3.73,2.86l-.11.05.26-.11c2-1.11,3.35-3,5.3-4.17,2.73-.78,5.2-3.37,8.34-1.17,5.6,1.78,6.42,6.74,6.83,11.39.84,9.49-2.51,17.69-8.37,25.2-5,6.4-9.33,13.3-15.89,18.32C341.91,79.19,338.83,78.79,339.11,81.68Z"/><path class="cls-1" d="M380.87,20.71C378.63,10.57,382.45,4,392.8,2.45,404.66.63,416.68-.68,428.73.38a20.25,20.25,0,0,1,18,16.47c2.59,13.55,2,27.21,1.88,40.86,0,3.39-.36,6.77-.55,10.16-6.82,1.87-12.43,6.5-19.13,8.44.42-.1.72-.3,1.09-.39,2.68-.61,5.16-2.6,8.07-.94a1.86,1.86,0,0,1,.95,2,3.14,3.14,0,0,1-1.75,1.64c-8,1.92-15.84,4.78-24.13,5.5a10.47,10.47,0,0,0-3.66.73c-3.29.39-5.94.11-5.62-4.35.16-2.18-2.1-2.64-3.38-3.79-13.26-12-22.71-26.17-25.23-44.29a33.61,33.61,0,0,1,.1-4.37,7.38,7.38,0,0,1,5.69-6.24c3-1.28,5.45,1,8.22,1.15,1.41.08,1.82,2,3.27,1.85-.05,0-.16-.3-.16-.3l-.36,0a2.33,2.33,0,0,1-.94-.48C387.93,22.22,384.28,21.85,380.87,20.71Z"/><path class="cls-2" d="M294.13,23.87c-.35,10.28.12,20.47,2.8,30.5,2.56,9.55,8.26,16.74,16.85,22.82-4.76,1.31-8.48-1.45-12.55.3l21.11,5.35c.07,2.18-1.57,2.13-3,2.33-4.36-1.09-8.87-1.47-12.44-2.3,4.27.57,9.23,2.06,14.4,2.29,1.8.1,3.72-.32,5.14,1.28.33,1.45-.67,1.93-1.73,2.36a20.22,20.22,0,0,1-4,.24c-1.52,0-3,0-4.55-.12-4.91-1.15-5.43-.89-5.87,3.88-.19,2.13-1.21,4-1.17,6.2,0,.74-.1.75.83,1a2.4,2.4,0,0,1,2,1.58c1.16,4.16,5.4,3.09,8.05,4.74,1.14,1.16,3.29,1.73,2.43,4.07-2.29,1.93-4.92,1.34-7.45.85-5.12-1-10.28-1.61-15.45-2.27,7.37,1.83,14.83,3.13,22.27,4.59,3.09.61,6.63.37,8.77,3.49,0,1.93-.42,2.86-2.85,2.35-12.87-2.71-25.78-5.23-38.69-7.75-2.42-.47-3.62-1.23-2.91-4.12,2.07-8.42,2.57-17.14,5.77-25.38,2.44-6.29,1.51-13.16,1-19.8-1-12.84-1.38-25.67.36-38.49A.59.59,0,0,1,294.13,23.87Z"/><path class="cls-2" d="M375.42,28.08c2,6.68,2.89,13.74,5.86,20.08,5.36,11.43,12.43,21.62,22.91,29.08,1.16.82,3.22.73,1.32,4-2.44,4.17,2.5,1.52,3.91,2.37a1.87,1.87,0,0,1,2.34.15c1,1.7,2.84,1.34,4.36,1.77.9.43,1.6,1,1.5,2.12-.63,1.12-1.81,1.52-2.81,2.16a3.24,3.24,0,0,0-2.32,4.12c.25,1.26.53,2.51.83,3.76,1.77,7.35,1.77,7.35,9.13,7.14a9.58,9.58,0,0,1,2.87.3c1.12.51,2.34.86,3.07,2a1.77,1.77,0,0,1-.1,1.41c-2.3,2.79-6.12,1.77-9.82,4,8.11-.74,15-2.54,22-3.67,3.79-.61,7.6-2.17,11.5-.42.81,2.46-1.36,2.25-2.5,2.47-12.46,2.4-25,4.62-37.41,7.06-3.19.62-4.17-.36-4.68-3.52-1.34-8.35-3.14-16.62-4.77-24.92-1.94-9.92-8.72-16.79-15.22-23.76-6.93-7.43-11.58-15.92-13.21-26a8.66,8.66,0,0,1,.06-8C374.41,30.43,374.28,29.05,375.42,28.08Z"/><path class="cls-3" d="M97.35,58.43c0-5.06.15-10.12,0-15.18-.15-3.48,2.09-3,4.18-3s4.35-.31,4.11,3.07c-.2,2.76.11,5.55-.08,8.32s.67,3.65,3.52,3.67,3.21-1.25,3.08-3.53c-.13-2.12.25-4.29-.09-6.36-.75-4.64,1.42-5.63,5.5-5.23,2.06.21,2.88.85,2.87,2.93,0,10.28-.09,20.57,0,30.85,0,3.51-2.28,2.78-4.31,2.86-2.2.08-4.34.29-4.06-3.09.21-2.59,0-5.22.06-7.83.08-2.27.19-4-3.14-3.92-2.93.08-3.66,1.11-3.44,3.73.17,2.11-.19,4.27.08,6.36.51,3.93-1,5-4.87,4.86-3-.13-3.51-1.23-3.43-3.81C97.46,68.23,97.35,63.33,97.35,58.43Z"/><path class="cls-3" d="M151.45,55.81c0-4.4-.08-8.8,0-13.2.09-4.1,2.05-6.59,6.33-7.29a31.4,31.4,0,0,1,11.15.11c4.52.87,7.93,9,5.27,12.74-1.35,1.89-3.63.78-5.49.94-2.17.18-2.26-1.42-2.15-3,.21-2.76-.65-4.33-3.77-4.26s-3.07,2.11-3.06,4.33c0,6.68.06,13.36,0,20,0,2.29.49,3.71,3.22,3.69,2.45,0,3.89-.93,3.56-3.41-.56-4.22,2.17-3.63,4.82-3.79,3.78-.23,3.16,2.27,3.16,4.5,0,7.22-2,9.34-9.16,9.54-.48,0-1,0-1.46,0-11,.09-12.48-1.36-12.49-12.21V55.81Z"/><path class="cls-4" d="M205,56c0-4.24.15-8.48,0-12.71-.16-3.41,2-3,4.17-3.08s4.19-.17,4.12,3.12c-.15,7.33,0,14.67,0,22,0,2.35-.18,4.57,3.37,4.61S220,67.75,220,65.41c0-7.17.13-14.34-.06-21.51-.09-3.26,1.44-3.69,4.15-3.72s4.14.66,4.07,3.8c-.17,8,.07,16-.1,24-.14,6.72-2.14,8.55-8.89,8.86C206.5,77.38,205,76,205,63.36Z"/><path class="cls-3" d="M69.34,58.28c0-3.75-.07-7.51,0-11.25s2.4-5.83,6-6.43a36.16,36.16,0,0,1,11.7.08c3.9.64,7,7.42,5,10.73-1.17,1.94-3.26.8-4.94,1-1.35.17-2.73,0-2.57-1.93.31-3.55-2.08-3.36-4.48-3.39-3.27,0-3,2.25-3,4.39,0,4.9,0,9.8,0,14.69,0,1.78-.14,3.89,2.55,3.79,1.66-.06,4.1.93,4.62-1.43.38-1.76,2-4.5-2-5.29-2.37-.46-1.19-3-1.28-4.65-.12-2.08,1.44-2.21,3-2.18a25.51,25.51,0,0,0,3.91,0c3.41-.45,4.88.89,4.37,4.35a12.52,12.52,0,0,0,0,2.45c.76,14-2.64,14.26-16.39,13.39-4.11-.26-6.5-2.77-6.58-7-.08-3.76,0-7.51,0-11.26Z"/><path class="cls-5" d="M17.92,62a29.91,29.91,0,0,1-5.34.16C8.89,61.59,7.75,63,8,66.62c.19,2.4.55,3.59,3.24,3.34,2.42-.22,4.88,0,7.32,0,2.27,0,4.34-.49,4.38,3.26s-1.84,3.72-4.49,3.67q-7.8-.15-15.61,0C.79,76.89,0,76.19,0,74.07Q.12,58.7,0,43.31c0-2.32.75-3.15,3.08-3.09,5.53.12,11.06.15,16.59,0,2.67-.08,3.33,1,3.22,3.44-.09,2.16-.08,3.91-3,3.68-2.26-.18-4.61.3-6.81-.1-4.94-.9-5.2,1.82-5,5.52.13,1.86.62,2.58,2.54,2.52,2.43-.09,4.86.1,7.3.17A5.4,5.4,0,0,1,17.92,62Z"/><path class="cls-3" d="M27.84,55.74c0-5.7.1-11.4,0-17.09-.07-2.58.48-3.91,3.45-3.81,5.53.19,11.06.16,16.59,0,2.91-.08,3,1.57,3.06,3.73s-.37,3.51-2.9,3.36c-1.94-.11-3.9,0-5.85,0-5.44,0-8.47,4.52-5.93,9.28,1.34,2.53,4.16.59,6.21,1.17,1.7.47,4-1.22,5.08,1.41,1.31,3.31-.2,5.43-3.85,5.51-7.61.17-7.61.17-7.61,7.75,0,1.63,0,3.25,0,4.88,0,4.68-2.1,6.13-6.6,4.9-2.18-.59-1.57-2.19-1.58-3.5C27.81,67.46,27.84,61.6,27.84,55.74Z"/><path class="cls-6" d="M319.53,107.4a37.83,37.83,0,0,0-5.61-1c-2.82-.12-3.52-1.59-3.22-4,1.17-2-1.14-3.93-.25-6,1-2.64.68-5.76,2.74-8a2.67,2.67,0,0,1,1.46-.52,27.85,27.85,0,0,0,5.4.25c1.54-.18,3,.52,4.53.47,1,.06,2.05-.23,3.08-.22,3,1.4,7.06-.46,9.31,3.12a138.28,138.28,0,0,1-3.8,17.9c-1.19.46-2.31,1.2-3.68,1a20.63,20.63,0,0,0-5.18-.85C322.64,109,321.19,107.93,319.53,107.4Z"/><path class="cls-3" d="M187.79,55.36c0,3.75.13,7.51,0,11.25-.11,2.51.67,3.61,3.29,3.34,1.78-.19,3.6.11,5.37-.07,2.75-.27,3.64.72,3.66,3.54,0,3-1.17,3.53-3.77,3.44-4.55-.17-9.12-.15-13.68,0-2.35.07-3.1-.78-3.08-3.1.09-10.11.16-20.23,0-30.33-.08-3.82,2.33-3,4.52-3.2,2.53-.19,4,.37,3.8,3.4C187.62,47.52,187.79,51.45,187.79,55.36Z"/><path class="cls-5" d="M132.42,61.9c0-2.77-.13-5.54,0-8.3.23-4,.33-7.54-5.56-6.43-2.86.54-2.23-2-2.33-3.7s-.17-3.27,2.35-3.24q9,.14,18,0c3,0,2.3,2,2.4,3.68.12,2-.19,3.81-2.78,3.31-5.19-1-5.27,2-5.15,5.85.21,6.83,0,13.67.11,20.5.06,2.57-.75,3.41-3.32,3.31-2.36-.09-4.07,0-3.86-3.27C132.62,69.72,132.42,65.8,132.42,61.9Z"/><path class="cls-7" d="M448.49,80.72q1.5,11.69,3,23.37c-2.3,2.86-5.5,3-8.76,2.92-2-.48-4.06-.13-6-.8-2.52-1.51-2.91-4.19-3-6.65-.15-3.2-.74-6.31-1.12-9.45-.6-6.28-.6-6.28,6.22-7.87a11.39,11.39,0,0,0,5.49-2C445.8,79.5,447.23,79.44,448.49,80.72Z"/><path class="cls-5" d="M56.08,58.68c0-5,.18-10.11-.06-15.15-.15-3.13,1.4-3.41,3.83-3.32s4.43-.37,4.35,3.32c-.22,10.09-.2,20.2,0,30.29.06,3.45-2,3-4.09,3s-4.24.47-4.08-3C56.26,68.79,56.08,63.73,56.08,58.68Z"/><path class="cls-8" d="M330.54,117.1l-32-6c-1.69-.32-3.87-.14-3.37-2.94s2.45-1.64,4.13-1.37c7.66,1.2,15.33,2.34,23,3.49a8.63,8.63,0,0,1,5.1-.39c1.5.81,3.48.55,4.63,2.1Z"/><path class="cls-9" d="M443.13,105.32l8.38-1.23c.15,1.42.31,2.84.46,4.26-11,2-22,4-32.91,6.2-2.24.45-2.9-.42-3.36-2.23-.61-2.39,1.14-2.14,2.52-2.4,3.34-.62,6.66-1.29,10-1.94,2.25-2.32,5.08-2.4,8-2.07.46-.07.93-.13,1.39-.18C439.45,105.56,441.34,106.07,443.13,105.32Z"/><path class="cls-10" d="M412.57,82.84a210.11,210.11,0,0,0,26.3-6.2,7.31,7.31,0,0,1,4.58-2.23c1.44-.1,2.95-.9,4.22.47a6.32,6.32,0,0,1,.69,3.93c-7,3.88-15,3.87-22.6,5.22-3.31.6-6.67,1.61-10.14,1C414.25,84.82,412.61,84.93,412.57,82.84Z"/><path class="cls-11" d="M428.24,76l16.62-8.86c1.27-.68,2.66-1.71,3.25.73l-.54,5.84c-1.09,1.14-2.73.88-4,1.57a32.79,32.79,0,0,1-5.77.47l-8.53,1.19C428.22,77.42,428.08,76.88,428.24,76Z"/><path class="cls-12" d="M415.78,83.8l32.58-5c0,.64.09,1.28.13,1.91l-3.67.69c-2,1.49-4.55.88-6.75,1.64a38.34,38.34,0,0,0-7.36,2,11,11,0,0,0-4.24.75,15.29,15.29,0,0,0-6,1.52c-1.89.87-3.2-2.2-5.18-.76-1.39,0-2.78.1-4.18.12-.63,0-1.32-.09-1.3-.89,0-1,.94-1.06,1.65-1.31C412.81,83.69,414.43,84.55,415.78,83.8Z"/><path class="cls-13" d="M319.47,84.34l2.87-1.5L338.17,85a1.44,1.44,0,0,1-1.08,1.77,4.23,4.23,0,0,1-3.58,1.08,15.73,15.73,0,0,0-3.72-.74c-2.16.21-3.81-1.71-6-1.44C322.29,85.44,320.51,86.13,319.47,84.34Z"/><path class="cls-14" d="M360.46,22.76c-3.12,0-5.83,1.54-8.71,2.45-.89.19-1.77.35-2.33-.65,3.38-2.5,6.82-4.84,11.38-3.93C360.68,21.33,360.57,22.05,360.46,22.76Z"/><path class="cls-15" d="M389.81,24.2l-8.7-2.36-.24-1.13c4.24-1.06,7.74.92,11.29,2.74C391.68,24.65,390.73,24.38,389.81,24.2Z"/><path class="cls-16" d="M327.25,89.59l-2.78-.26a1,1,0,0,1-.31-1.58l2.18-.89c.26-.9,1-.69,1.62-.7a9.32,9.32,0,0,0,3.27.46c1.91.26,3.75,1,5.72.91.07.69.14,1.38.2,2.06C333.85,91.07,330.55,89.24,327.25,89.59Z"/><path class="cls-17" d="M339.11,81.68c-1.34-.34-3,.45-4.33-1.54L343,77.67A11.08,11.08,0,0,1,339.11,81.68Z"/><path class="cls-18" d="M332.07,112c-1.58-.12-3.22.11-4.67-.76-.28-1.54-3.91.65-2.77-2.47,1.6-.06,3.22-.55,4.74.36l3.8.2Z"/><path class="cls-19" d="M374.25,31.71l-.06,8C371,37,371.48,34.35,374.25,31.71Z"/><path class="cls-20" d="M327.25,89.59c3.3-1.68,6.6.6,9.9,0L337,91.45Z"/><path class="cls-21" d="M337,87.53c-1.9,2-3.72-.52-5.6-.09-.08-1.82.92-1.34,1.9-.89l3.84.18A1.47,1.47,0,0,1,337,87.53Z"/><path class="cls-22" d="M294.13,23.87c-.31,0-.62,0-.92,0a5.71,5.71,0,0,1,.87-3.94A2.63,2.63,0,0,1,294.13,23.87Z"/><path class="cls-23" d="M443.77,74.7c1.09-1,2.5-.78,3.8-1,0,.39.07.78.1,1.17l-3.86.77C443.19,75.36,443.17,75,443.77,74.7Z"/><path class="cls-24" d="M349.42,24.56l2.33.65c-1.58,1.7-3,3.69-5.66,3.69-.29-.17-.42-.38-.37-.61s.12-.37.21-.37C347.7,27.43,347.1,24.48,349.42,24.56Z"/><path class="cls-25" d="M345.93,27.92c.05.33.1.65.16,1-.91,1.11-1.69,2.39-3.73,2.52C342.61,29.1,343.54,27.83,345.93,27.92Z"/><path class="cls-26" d="M345.06,24.66c-.84-.21-1.41-.56-1.39-1.29,0-.15.83-.4,1.26-.37s1.48,0,1.14,1C346,24.33,345.35,24.49,345.06,24.66Z"/><path class="cls-27" d="M389.81,24.2l2.35-.75a2.5,2.5,0,0,0,.67.07c.94,0,1.39.48,1.21,1.45-.1.78-.23,2.25-.29,2.25C391.77,27.14,390.86,25.57,389.81,24.2Z"/><path class="cls-28" d="M443.77,74.7c0,.31,0,.63,0,1l-4.94,1-1.06-.89C439.64,74.49,441.76,74.91,443.77,74.7Z"/><path class="cls-29" d="M395.19,28.48c2-.43,2.84.64,3.67,2.68A4.69,4.69,0,0,1,395.19,28.48Z"/><path class="cls-30" d="M415.78,83.8c-1.31,1-2.82.8-4.32.68l-2-.91a3.76,3.76,0,0,1,3.15-.73C413.45,83.79,414.67,83.62,415.78,83.8Z"/><path class="cls-31" d="M428.24,76l1,.94a4.59,4.59,0,0,1-4.23.6C425.73,76.1,427,76.11,428.24,76Z"/><path class="cls-32" d="M394,25l-1.21-1.45c.92-.35,1.89-1.89,2.78-.53C396.18,23.87,394.81,24.47,394,25Z"/><path class="cls-33" d="M306.6,89.29c-.15,4.91-1.71,9.49-3.06,14.08-.79,2.7-3,.9-4.55.87-1.94,0-2.92-.91-2.46-3.13.9-4.27,1.6-8.59,2.38-12.88.28-1.56.18-3.69,2.72-2.71C303.62,86.28,306.93,85.54,306.6,89.29Z"/><path class="cls-34" d="M314.92,87.82l-1.15.63c-1.45,1.73-1.59,3.85-1.75,6-1,1.88-.64,4.26-2.08,6l-1.42,5.07c-2-.32-1.52-1.58-1.38-2.61q.81-5.77,1.68-11.53c.78-5.19,1.36-5.51,6.64-3.82Z"/><path class="cls-35" d="M319.47,84.34l4.84.46c-.48,2.48-2.62.72-3.77,1.48l-20.36-3.62C306.9,81.3,313.13,83.28,319.47,84.34Z"/><path class="cls-36" d="M324.39,109.15l3,2.11c-1.67-.34-3.52.23-5.05-1l-2.81-2.91,4.84.87C325,108.55,325,108.84,324.39,109.15Z"/><path class="cls-37" d="M320.54,86.28l3.77-1.48,5.9.91c.07,1.87-1.14,1.29-2.14,1.11l-1.73,0Z"/><path class="cls-38" d="M309.94,100.42c.36-2.14.44-4.36,1.61-6.3a2,2,0,0,1,.25,2.48c-.17,2,0,4-1.1,5.74C310.45,101.7,310.2,101.06,309.94,100.42Z"/><path class="cls-39" d="M314.92,87.82l.54-.29,5,.18c.4.15.53.31.42.49s-.25.29-.37.29C318.59,88.58,316.69,88.7,314.92,87.82Z"/><path class="cls-40" d="M320.49,88.49c0-.26,0-.52-.05-.78l3.72,0c.1.53.2,1.06.31,1.59Z"/><path class="cls-5" d="M254.32,57.84c3-4,1.55-8.44,1.16-12.65-.25-2.67-2.47-4.53-5.48-4.62-4.7-.15-9.42-.12-14.12-.35-2.55-.12-2.91,1.17-2.88,3.27.09,5,0,10.08,0,15.12s0,10.09,0,15.13c0,1.78.08,3.19,2.52,3.1,4.71-.17,9.42,0,14.13-.24,3.57-.17,6-2.37,6-5.82,0-3.86,1.81-8.15-1.59-11.55C253.34,58.47,254,58.29,254.32,57.84Zm-10.24,12.4c-3.63.13-4-1.62-3.58-4.43-.66-3,.59-3.85,3.57-3.85,3.13,0,4.2,1,4.23,4.15S247.15,70.12,244.08,70.24ZM244,55.3c-3.76.22-3.86-1.79-3.52-4.47-.44-2.66.13-4.17,3.41-4.13s4.49,1.08,4.45,4.48S247,55.12,244,55.3Z"/><path class="cls-41" d="M425.29,106c-1.77.22-3.65.13-5.29.72-4.66,1.69-6.43-1-7.47-4.7-.78-2.82-1.13-5.76-2-8.54-1.05-3.37.08-4.85,3.47-4.89,1.93-.85,4.15-.5,6.05-1.48a10.77,10.77,0,0,1,1.54-.62c7-.8,8.86,0,9.56,6.68.44,4,3.43,8.39-.09,12.48C429.21,106.84,427.23,106.05,425.29,106Z"/><path class="cls-42" d="M437,106.22a26,26,0,0,1-8.79,1.76c0-.25-.08-.5-.11-.76.37-.94,1.29-1.09,2.08-1.43,2.52,0,2.11-3.2,4.09-3.81C436.4,102.61,434.85,105.61,437,106.22Z"/><path class="cls-43" d="M430.16,106a2.45,2.45,0,0,1-2.05,1.2c-1.07-.1-2.24,0-2.82-1.19,1.55-1.07,3.31-.68,5-.75.25.21.32.39.2.54A.43.43,0,0,1,430.16,106Z"/><path class="cls-44" d="M415.29,86.56c1.64-1.72,3.37.32,5-.11l.37.36a.68.68,0,0,1-.41.8l.08,0a2.26,2.26,0,0,1-3-.15Z"/><path class="cls-45" d="M417.34,87.44l3,.15c-2,1.27-4.18,1-6.35,1Z"/><path class="cls-46" d="M311.8,96.6c-.08-.82-.16-1.65-.25-2.47.31-2.06-.58-4.59,2.22-5.68C313.11,91.16,312.46,93.88,311.8,96.6Z"/><path class="cls-47" d="M324.39,109.15c0-.29,0-.58,0-.88,1.74-.15,3.48-.26,5,.88Z"/><path class="cls-48" d="M437,106.22c-2.55-.18-1.57-2.9-2.86-4-3.17-2.92-2.56-6.76-2.55-10.46.41-1.1.73-2.29,2.29-2.18,1.78,5.14.49,10.86,3,15.85.42.14.57.3.46.48s-.26.3-.39.3Z"/><path class="cls-49" d="M433.89,89.6l-.95,2.11c-3.45-1-2-4.43-3.18-6.56a1.66,1.66,0,0,1,.36-1.32l7.68-1.22c.94-.35,2-1,2,.85C436.66,84.41,432.16,84,433.89,89.6Z"/><path class="cls-50" d="M439.77,83.46l-2-.85c2.16-1.4,4.71-.59,7-1.2C443.61,83.25,441.65,83.24,439.77,83.46Z"/><path class="cls-51" d="M437,106.23c0-.26-.06-.52-.07-.78l6.22-.13C441.23,106.62,439,106,437,106.23Z"/><path class="cls-52" d="M420.33,86.45c1.3-2.48,3.75-1.44,5.72-1.87,1.22-.57,2.19-.65,2.24,1.12-2.54,1.23-5.15,1.87-7.94.91Z"/><path class="cls-53" d="M428.14,85.37l-2.09-.79a6.57,6.57,0,0,1,4.08-.75c0,.29,0,.58,0,.87C429.94,86.36,429.19,86.29,428.14,85.37Z"/><path class="cls-54" d="M328.07,86.82l2.14-1.11c1.1,0,2.21-.08,3,.84l-1.9.89A4.22,4.22,0,0,1,328.07,86.82Z"/><path class="cls-55" d="M428.14,85.37l2-.67c3.54,1.28.91,5.07,2.84,7-.3,3.59.72,7,1.21,10.53.25,2.93-.77,4.52-4,3.78,0-.25.08-.49.13-.74,1.91-5.7-.94-11-1.54-16.43-.17-1.53-1.93-1.51-3.19-1.52-1.75,0-3.51.18-5.27.28l.06-1Z"/></svg>